<svg xmlns="http://www.w3.org/2000/svg" viewBox="0 0 100 100">
  <circle cx="50" cy="50" r="45" stroke-width="10" stroke="#005a9c" fill="#fff"/>
  <path d="M70.635 28.277h-2.04q-.572-2.15-2.395-4.598-1.796-2.449-3.455-2.694-.844-.109-2.014-.163-1.143-.054-2.612-.054h-6.476v15.509h4.435q2.014 0 3.13-.408 1.115-.436 1.904-1.306.544-.6.98-1.85.462-1.28.598-2.722h2.068v15.156H62.69q-.081-1.197-.571-2.721-.463-1.524-1.007-2.204-.816-1.007-2.068-1.36-1.224-.381-2.966-.381h-4.435v13.305q0 .898.354 1.605.354.708 1.252 1.143.408.19 1.768.462 1.36.273 2.068.3v1.932H40.352v-1.932q.816-.055 2.176-.164 1.36-.136 1.769-.326.816-.354 1.17-1.034.38-.707.38-1.687V24.223q0-.898-.298-1.578-.3-.707-1.252-1.143-.735-.353-1.986-.626-1.225-.272-1.96-.326v-1.932h30.284z" fill="#005a9c"/>
  <path d="M24.7 54.34v7.964h5.575q1.964 0 2.787.77.85.743.85 1.964 0 1.195-.85 1.965-.823.743-2.787.743H18.408q-1.965 0-2.814-.743-.823-.77-.823-1.991 0-1.195.85-1.938.849-.77 2.787-.77h.85v-21.29h-.85q-1.965 0-2.814-.744-.823-.77-.823-1.991t.823-1.965q.85-.77 2.814-.77l25.618.027v8.31q0 1.937-.77 2.787-.743.823-1.964.823-1.195 0-1.965-.823-.743-.823-.743-2.788v-2.867H24.7v7.885h4.778q0-2.124.398-2.735.823-1.3 2.336-1.3 1.195 0 1.938.849.77.823.77 2.787v6.265q0 1.965-.77 2.814-.743.823-1.964.823-1.487 0-2.31-1.3-.398-.61-.398-2.761z" fill="#005a9c"/>
  <path d="M72.611 64.394l3.34-13.414 8.352.209c.679-.574 2.192-1.723 3.288-2.401.261-.627.314-.731.522-1.462-2.192 1.357-4.019 1.827-6.942 1.827l-6.994-.052c-5.637 0-8.926.835-11.796 2.87-2.923 2.14-4.698 5.794-4.698 9.605 0 1.252.157 2.14.678 4.019l4.385-1.984c-.835-2.453-1.044-3.601-1.044-5.167 0-4.698 3.08-7.62 7.934-7.62.626 0 1.514.052 2.505.156l-3.34 13.414-1.88 2.401h1.306l-1.41 5.585c-2.088 8.352-3.34 9.813-8.299 9.813-.678 0-1.566-.052-3.497-.104l-2.036 3.393c1.096.104 2.036.156 2.61.156 3.132 0 5.376-.991 8.821-3.81 3.81-3.08 5.168-5.324 6.42-10.283l1.253-5.01c2.975-.157 5.429-.314 5.585-.366 1.462-.209 1.88-.47 3.184-1.775z" fill="#005a9c"/>
</svg>
